<?xml version="1.0" encoding="UTF-8"?>
<svg id="Capa_2" data-name="Capa 2" xmlns="http://www.w3.org/2000/svg" xmlns:xlink="http://www.w3.org/1999/xlink" viewBox="0 0 1659.74 431.11">
  <defs>
    <style>
      .cls-1 {
        fill: #ffffff;
      }

      .cls-1, .cls-2, .cls-3, .cls-4 {
        stroke-width: 0px;
      }

      .cls-2 {
        fill: #ffffff;
      }

      .cls-3 {
        fill: #fff;
      }

      .cls-4 {
        fill: url(#Degradado_sin_nombre_2);
      }
    </style>
    <linearGradient id="Degradado_sin_nombre_2" data-name="Degradado sin nombre 2" x1="-104.12" y1="765.97" x2="-64.2" y2="726.05" gradientTransform="translate(1124.48 8272.47) scale(10.8 -10.8)" gradientUnits="userSpaceOnUse">
      <stop offset="0" stop-color="#cc92ff"/>
      <stop offset="1" stop-color="#9013fe"/>
    </linearGradient>
  </defs>
  <g id="Capa_1-2" data-name="Capa 1">
    <g>
      <g>
        <path class="cls-4" d="M103.47,0h327.65v327.65c0,57.14-46.32,103.47-103.47,103.47H0V103.47C0,46.32,46.32,0,103.47,0Z"/>
        <g>
          <path class="cls-3" d="M115.28,258.32h18.28c.98,0,1.63-.65,1.63-1.63v-100.86c0-11.1,9.14-20.24,20.24-20.24h100.86c.98,0,1.63-.65,1.63-1.63v-18.28c0-13.06-10.44-23.5-23.5-23.5h-119.14c-13.06,0-23.5,10.44-23.5,23.5v119.46c0,12.73,10.44,23.17,23.5,23.17ZM172.4,297.16v18.28c0,13.06,10.44,23.5,23.5,23.5h119.46c13.06,0,23.5-10.44,23.5-23.5v-119.46c0-13.06-10.44-23.5-23.5-23.5h-18.6c-.98,0-1.63.65-1.63,1.63v100.86c0,11.1-9.14,20.24-20.24,20.24h-100.86c-.98.33-1.63.98-1.63,1.96h0Z"/>
          <path class="cls-3" d="M174.03,258.32h60.71c13.06,0,23.5-10.44,23.5-23.5v-60.38c0-.98-.65-1.63-1.63-1.63h-61.04c-13.06,0-23.5,10.44-23.5,23.5v60.71c.33.65.98,1.31,1.96,1.31h0Z"/>
        </g>
      </g>
      <g>
        <path class="cls-2" d="M585.03,78.31c-10.2-5.96-21.74-8.91-34.69-8.91h-47.23v144.18h48.1c12.62,0,23.99-2.96,34.07-8.91,10.12-5.96,18.03-14.16,23.78-24.7,5.75-10.54,8.62-22.45,8.62-35.73v-5.41c0-13.29-2.87-25.2-8.66-35.78-5.79-10.54-13.79-18.82-23.99-24.74ZM579.83,138.62v5.62c0,13.16-2.46,23.03-7.41,29.61-4.96,6.62-11.99,9.91-21.2,9.91h-11.16v-84.46h10.29c9.62,0,16.95,3.29,21.99,9.95,5,6.62,7.5,16.41,7.5,29.36ZM731.17,171.89v-15.16c0-10.83-2-20.16-6-28.03-4-7.87-9.7-13.87-17.12-18.03-7.45-4.16-16.16-6.25-26.2-6.25-11.58,0-21.28,2.5-29.11,7.41-7.87,4.91-13.7,11.54-17.53,19.91-3.83,8.33-5.75,17.7-5.75,28.07v3.66c0,9.29,2.21,17.95,6.66,25.9,4.46,7.95,10.95,14.29,19.49,19.03,8.5,4.75,18.49,7.16,29.99,7.16,6.5,0,12.54-.87,18.12-2.58,5.62-1.71,10.5-3.96,14.62-6.71,4.12-2.75,7.37-5.71,9.75-8.87l-15.74-20.7c-2.96,3.58-6.58,6.16-10.83,7.75-4.25,1.58-8.79,2.37-13.54,2.37-5.62,0-10.29-1.29-14.12-3.91-3.79-2.62-6.37-6.29-7.75-11.04h65.05ZM681.57,133.16c10.29,0,15.28,4.46,15.03,13.37v2.87h-30.9c.79-5,2.42-9,4.87-11.87,2.42-2.92,6.08-4.37,10.99-4.37ZM838.83,106.42h-37.52l-15.58,64.39-15.24-64.39h-37.65l34.48,107.16h36.94l34.57-107.16ZM958.94,191.05c5.08-7.83,7.79-16.87,8.12-27.2h-36.73c-.04,7.41-2.12,12.79-6.12,16.16-4.04,3.37-9.87,5.04-17.45,5.04-6.12,0-10.91-1.21-14.37-3.62-3.42-2.42-5.91-6.5-7.45-12.33-1.54-5.79-2.33-13.99-2.33-24.53v-6.25c0-10.16.83-18.2,2.54-24.11,1.67-5.91,4.21-10.16,7.54-12.7,3.37-2.54,7.83-3.79,13.29-3.79,8.79,0,15.08,1.79,18.82,5.37,3.75,3.62,5.66,9.33,5.75,17.12h36.82c-.83-10.37-3.75-19.53-8.66-27.49s-11.83-14.2-20.74-18.7c-8.91-4.46-19.57-6.71-31.99-6.71s-22.82,2.87-32.03,8.62c-9.2,5.75-16.37,13.95-21.41,24.7-5.04,10.75-7.58,23.36-7.58,37.9v6.04c0,14.62,2.46,27.28,7.29,37.98,4.87,10.66,11.91,18.82,21.2,24.49,9.29,5.66,20.37,8.54,33.32,8.54,11.74,0,22.11-2.17,31.11-6.41,8.95-4.25,15.99-10.29,21.07-18.12ZM1068.89,114.84c-6.41-6.91-15.24-10.41-26.53-10.41-5.41,0-10.41,1.17-14.95,3.5-4.58,2.29-8.54,5.58-11.91,9.79v-56.27h-35.44v152.14h35.44v-75.88c2.67-3.17,6.96-4.75,12.99-4.75,4.79,0,8.41,1.08,10.79,3.17,2.37,2.12,3.54,6.04,3.54,11.79v65.68h35.69v-65.47c0-15.24-3.21-26.32-9.62-33.28ZM1163.18,105.55c-2.46-.75-5.58-1.12-9.41-1.12-4.96,0-9.45,1.42-13.41,4.16-4,2.79-7.33,6.79-9.95,11.99l-1.21-14.16h-33.07v107.16h35.44v-65.26c1.46-2.96,3.79-5.16,7-6.58,3.21-1.42,7.45-2.12,12.7-2.12,1.87,0,4.71.17,8.54.58l2.75.21.62-34.86ZM1203.37,63.36c-2.96-1.54-6.33-2.29-10.08-2.29s-7.25.75-10.2,2.29c-3,1.5-5.33,3.62-7,6.33-1.67,2.71-2.54,5.79-2.54,9.2s.87,6.58,2.54,9.29c1.67,2.71,4,4.83,7,6.37,2.96,1.5,6.37,2.25,10.2,2.25s7.12-.75,10.12-2.25c3-1.54,5.33-3.66,7-6.37,1.67-2.71,2.46-5.79,2.46-9.29s-.83-6.5-2.5-9.2c-1.71-2.71-4.04-4.83-7-6.33ZM1175.63,213.58h35.65v-107.16h-35.65v107.16ZM1238.02,160.73c6.87,5.54,15.95,9.5,27.24,11.95,5.5,1.17,9.66,2.25,12.54,3.21,2.87.96,4.91,2,6.16,3.08,1.21,1.08,1.83,2.42,1.83,4,0,2.67-1.08,4.75-3.25,6.29-2.12,1.54-5.21,2.33-9.25,2.33-4.96,0-8.83-1.04-11.58-3.17-2.79-2.12-4.25-5.25-4.37-9.41h-32.98c0,5.87,1.92,11.66,5.71,17.28,3.79,5.66,9.33,10.29,16.53,13.87,7.25,3.58,15.78,5.41,25.7,5.41s17.87-1.46,25.07-4.37c7.2-2.92,12.74-6.87,16.62-11.95,3.91-5.04,5.87-10.75,5.87-17.08,0-7.58-1.96-13.74-5.79-18.49-3.87-4.79-8.83-8.37-14.87-10.79-6.04-2.37-13.08-4.21-21.16-5.46-11.29-1.79-16.91-5.29-16.91-10.54,0-2.71,1.08-4.79,3.29-6.33,2.21-1.5,4.83-2.25,7.87-2.25,4.62,0,7.83.87,9.66,2.62,1.83,1.75,2.71,4.66,2.71,8.75h35.57c0-7.08-1.96-13.24-5.83-18.57-3.91-5.29-9.45-9.41-16.7-12.33-7.2-2.92-15.66-4.37-25.28-4.37s-17.24,1.58-23.99,4.71c-6.75,3.17-11.87,7.33-15.41,12.58-3.5,5.25-5.29,11.04-5.29,17.28,0,9,3.46,16.24,10.29,21.74ZM1461.17,69.4h-41.4l-26.95,101.58-26.95-101.58h-41.06l47.44,144.18h41.06l47.85-144.18ZM1554.46,202.05c-.71-3.58-1.08-9.12-1.08-16.58v-42.11c0-8.37-1.96-15.49-5.83-21.32-3.91-5.87-9.29-10.25-16.12-13.2-6.83-2.92-14.62-4.41-23.32-4.41-9.58,0-17.95,1.54-25.16,4.54-7.2,3-12.74,7.2-16.62,12.66-3.91,5.46-5.87,11.7-5.87,18.78h35.48c0-3.71.83-6.37,2.5-8,1.71-1.62,4.29-2.42,7.79-2.42,4.04,0,6.96,1.12,8.75,3.37,1.83,2.25,2.75,5.5,2.75,9.79v4.96h-9.2c-17.2,0-29.9,3.04-38.19,9.16-8.29,6.12-12.41,14.78-12.41,25.99,0,6.29,1.62,11.87,4.91,16.78,3.33,4.96,7.75,8.75,13.29,11.45,5.54,2.71,11.58,4.08,18.03,4.08s11.29-1,15.24-2.96c3.96-1.92,7.37-4.71,10.2-8.25.87,3.83,1.83,6.91,2.96,9.2h35.36v-1.67c-1.58-3-2.75-6.29-3.46-9.87ZM1512.1,187.8c-2.54,1.25-5.58,1.92-9.12,1.92-2.71,0-5-.75-6.87-2.17-1.83-1.46-2.75-3.37-2.75-5.75,0-3.96,1.08-7.37,3.33-10.25,2.21-2.87,5.87-4.33,11.04-4.33h10v15.66c-1.21,1.96-3.08,3.62-5.62,4.91ZM1659.74,184.85h-45.56l44.77-59.1v-19.32h-88.83v28.74h42.4l-44.69,58.51v19.91h91.92v-28.74Z"/>
        <path class="cls-1" d="M543.47,325.64c-2.52-1.94-6.36-4.02-11.54-6.19-5.17-2.17-8.66-3.8-10.52-4.99-1.81-1.15-3.18-2.47-4.11-3.93-.8-1.37-1.19-3.05-1.19-5.04,0-2.87,1.06-5.17,3.14-6.85,2.08-1.68,5.04-2.52,8.88-2.52,5.17,0,11.09,1.41,17.81,4.2l3.89-9.99c-7.16-3.14-14.36-4.73-21.61-4.73s-13.13,1.81-17.59,5.39c-4.46,3.58-6.67,8.49-6.67,14.72,0,4.95,1.37,9.19,4.15,12.73,2.74,3.58,7.51,6.72,14.32,9.46,6.76,2.74,11.18,5.08,13.26,6.98,2.08,1.9,3.14,4.38,3.14,7.38s-1.19,5.35-3.54,7.16c-2.34,1.81-5.88,2.7-10.61,2.7-7.12,0-14.32-1.72-21.57-5.17v11.58c5.35,2.65,12.29,3.93,20.77,3.93s15.12-1.9,19.89-5.66c4.77-3.8,7.16-9.02,7.16-15.6s-2.47-11.8-7.47-15.56ZM587.44,313.66c9.63,0,14.45,6.5,14.45,19.49s-4.77,19.49-14.32,19.49-14.45-6.5-14.45-19.49,4.77-19.49,14.32-19.49ZM560.75,333.1c-.09,8.75,2.3,15.91,7.29,21.39,4.95,5.44,11.4,8.13,19.36,7.96,8.44,0,15.03-2.61,19.76-7.78,4.73-5.17,7.12-12.29,7.12-21.35s-2.39-16.22-7.16-21.52c-4.77-5.26-11.36-7.91-19.71-7.91s-14.89,2.56-19.62,7.69c-4.68,5.08-7.03,12.29-7.03,21.52ZM656.47,304.91h-13.83v-3.67c0-3.4.62-5.97,1.9-7.6,1.24-1.68,3.23-2.52,5.92-2.52s5.52.49,8.49,1.41l3.18-9.1c-4.07-1.37-8.22-2.08-12.51-2.08-6.41,0-11.23,1.59-14.36,4.82-3.14,3.23-4.68,8.18-4.68,14.85v3.67l-9.33,3.71v5.61h9.33v47.42h12.07v-47.42h13.83v-9.1ZM679.24,344.29v-30.27h16.13v-9.1h-16.13v-12.6h-7.38l-4.11,11.98-8.26,4.38v5.35h7.73v30.45c0,11.98,5.66,17.99,17.06,17.99,4.55,0,8.44-.66,11.67-2.03v-9.02c-2.96.88-5.79,1.33-8.44,1.33s-4.73-.71-6.14-2.12c-1.41-1.41-2.12-3.54-2.12-6.32ZM767.05,361.43l15.95-56.53h-12.11l-7.25,27.84c-1.9,7.56-3.09,13.44-3.58,17.59h-.4c-.18-2.03-.66-4.73-1.41-8.09-.71-3.36-1.37-5.88-1.9-7.65l-8.35-29.7h-13.17l-8.57,29.7c-.53,1.77-1.15,4.24-1.86,7.38-.71,3.18-1.19,6.01-1.55,8.49h-.27c-.75-5.13-1.9-11-3.49-17.72l-7.2-27.84h-12.29l15.87,56.53h13.3l7.47-26.3c1.06-3.36,2.65-9.9,4.73-19.53h.44c2.39,10.47,4.02,16.97,4.82,19.49l7.29,26.34h13.52ZM836.66,361.43v-38.05c0-6.67-1.77-11.58-5.39-14.76-3.62-3.14-9.06-4.73-16.35-4.73s-14.1,1.64-20.37,4.91l3.85,8.57c6.19-2.87,11.54-4.29,16.04-4.29,3.49,0,6.1.88,7.78,2.7,1.72,1.77,2.56,4.46,2.56,8.09v3.05l-9.72.27c-17.55.53-26.3,6.45-26.3,17.77,0,5.66,1.55,9.99,4.64,12.99,3.09,3.01,7.47,4.51,12.99,4.51,4.38,0,7.91-.62,10.65-1.86,2.78-1.28,5.48-3.62,8.22-7.07h.44l2.39,7.91h8.57ZM801.26,345.35c0-3.49,1.24-6.05,3.8-7.73,2.56-1.68,6.67-2.65,12.37-2.87l7.25-.27v4.86c0,4.42-1.33,7.87-3.98,10.3-2.65,2.43-6.14,3.62-10.47,3.62-2.96,0-5.22-.66-6.72-2.03-1.5-1.37-2.25-3.31-2.25-5.88ZM882.14,303.89c-3.45,0-6.67.97-9.68,2.92-3.05,1.94-5.52,4.64-7.42,8.04h-.57l-1.59-9.94h-9.41v56.53h12.02v-29.52c0-4.99,1.46-9.06,4.42-12.24,3.05-3.14,6.94-4.68,11.71-4.68,1.77,0,3.58.18,5.35.62l1.15-11.18c-1.59-.35-3.58-.53-5.97-.53ZM919,313c3.85,0,6.85,1.19,9.02,3.62,2.17,2.43,3.27,5.97,3.36,10.56h-25.68c.44-4.6,1.81-8.13,4.11-10.56,2.25-2.43,5.3-3.62,9.19-3.62ZM921.21,362.45c7.29,0,13.7-1.28,19.14-3.8v-9.77c-6.23,2.74-12.42,4.11-18.56,4.11-5.08,0-9.02-1.5-11.84-4.46-2.78-2.96-4.24-7.16-4.42-12.64h37.66v-6.5c0-8-2.17-14.23-6.54-18.7-4.29-4.51-10.34-6.81-18.08-6.81s-13.92,2.65-18.52,7.91c-4.6,5.3-6.89,12.46-6.89,21.57s2.47,16.22,7.42,21.35c4.99,5.17,11.84,7.73,20.64,7.73ZM1030.6,351.05h-30.05v-23.47h28.2v-10.21h-28.2v-20.33h30.05v-10.34h-42.25v74.74h42.25v-10.39ZM1095.26,324.57c0-13.79-6.81-20.68-20.33-20.68-3.89,0-7.38.75-10.52,2.21-3.09,1.46-5.52,3.49-7.2,6.19h-.66l-1.64-7.38h-9.41v56.53h12.02v-28.15c0-7.03,1.19-12.02,3.54-15.07,2.34-3.05,6.05-4.55,11.14-4.55,3.8,0,6.54,1.06,8.31,3.23,1.77,2.12,2.65,5.39,2.65,9.77v34.78h12.11v-36.86ZM1126.55,361.21h9.06c4.77,0,8.04.53,9.81,1.59,1.77,1.06,2.65,2.78,2.65,5.22,0,3.18-1.64,5.7-4.95,7.51-3.31,1.86-8.13,2.78-14.5,2.78-4.24,0-7.51-.71-9.86-2.12-2.3-1.41-3.49-3.45-3.49-6.1s1.02-4.82,3.05-6.45,4.77-2.43,8.22-2.43ZM1159.69,304.91h-19.58c-.84-.27-2.17-.49-3.93-.71-1.81-.22-3.49-.31-5.04-.31-7.16,0-12.68,1.68-16.57,5.04-3.89,3.4-5.83,8.13-5.83,14.28,0,3.76.93,7.07,2.74,9.9,1.77,2.87,4.15,4.95,7.16,6.23-2.47,1.5-4.29,3.01-5.44,4.46-1.1,1.46-1.68,3.09-1.68,4.95s.53,3.58,1.59,5.08c1.02,1.5,2.34,2.61,3.93,3.27-3.98.97-7.03,2.61-9.24,4.99-2.17,2.34-3.27,5.3-3.27,8.75,0,5.04,2.03,8.93,6.14,11.67,4.07,2.7,9.9,4.07,17.55,4.07,9.99,0,17.59-1.72,22.89-5.22,5.3-3.49,7.96-8.44,7.96-14.81,0-5.04-1.64-8.88-4.86-11.54-3.27-2.65-8-3.98-14.23-3.98h-9.81c-3.14,0-5.35-.31-6.63-.93-1.24-.66-1.9-1.64-1.9-2.96,0-2.12,1.33-4.02,3.93-5.61,1.33.27,2.96.4,4.86.4,7.07,0,12.6-1.68,16.62-5.04,4.07-3.31,6.05-7.91,6.05-13.7,0-3.8-1.02-7.12-3.05-9.94l9.63-1.77v-6.59ZM1131.01,311.63c6.94,0,10.39,3.76,10.39,11.31s-3.45,11.27-10.39,11.27c-3.4,0-6.01-.93-7.82-2.83-1.81-1.94-2.74-4.73-2.74-8.35s.88-6.5,2.7-8.44c1.77-1.99,4.38-2.96,7.87-2.96ZM1182.19,304.91h-12.02v56.53h12.02v-56.53ZM1181.17,294.74c1.19-1.15,1.77-2.78,1.77-4.91s-.57-3.71-1.77-4.86c-1.15-1.19-2.83-1.77-4.95-1.77s-3.8.57-4.99,1.77c-1.15,1.15-1.77,2.74-1.77,4.86s.62,3.76,1.77,4.91c1.19,1.19,2.83,1.77,4.99,1.77s3.8-.57,4.95-1.77ZM1249.1,324.57c0-13.79-6.76-20.68-20.33-20.68-3.85,0-7.34.75-10.47,2.21-3.14,1.46-5.52,3.49-7.25,6.19h-.62l-1.64-7.38h-9.46v56.53h12.07v-28.15c0-7.03,1.15-12.02,3.49-15.07,2.39-3.05,6.1-4.55,11.14-4.55,3.8,0,6.59,1.06,8.35,3.23,1.72,2.12,2.61,5.39,2.61,9.77v34.78h12.11v-36.86ZM1288.3,313c3.85,0,6.85,1.19,9.02,3.62,2.17,2.43,3.27,5.97,3.36,10.56h-25.68c.44-4.6,1.81-8.13,4.11-10.56,2.25-2.43,5.35-3.62,9.19-3.62ZM1290.51,362.45c7.29,0,13.7-1.28,19.14-3.8v-9.77c-6.19,2.74-12.37,4.11-18.56,4.11-5.08,0-9.02-1.5-11.8-4.46-2.83-2.96-4.29-7.16-4.46-12.64h37.66v-6.5c0-8-2.17-14.23-6.5-18.7-4.33-4.51-10.39-6.81-18.12-6.81s-13.92,2.65-18.52,7.91c-4.6,5.3-6.89,12.46-6.89,21.57s2.47,16.22,7.47,21.35c4.95,5.17,11.8,7.73,20.6,7.73ZM1348.63,313c3.85,0,6.85,1.19,9.02,3.62,2.17,2.43,3.27,5.97,3.36,10.56h-25.68c.44-4.6,1.81-8.13,4.11-10.56,2.25-2.43,5.3-3.62,9.19-3.62ZM1350.84,362.45c7.29,0,13.7-1.28,19.14-3.8v-9.77c-6.23,2.74-12.42,4.11-18.56,4.11-5.08,0-9.02-1.5-11.84-4.46-2.78-2.96-4.24-7.16-4.42-12.64h37.66v-6.5c0-8-2.17-14.23-6.54-18.7-4.29-4.51-10.34-6.81-18.08-6.81s-13.92,2.65-18.52,7.91c-4.6,5.3-6.89,12.46-6.89,21.57s2.47,16.22,7.43,21.35c4.99,5.17,11.84,7.73,20.64,7.73ZM1415.15,303.89c-3.45,0-6.67.97-9.68,2.92-3.05,1.94-5.48,4.64-7.43,8.04h-.57l-1.59-9.94h-9.41v56.53h12.02v-29.52c0-4.99,1.5-9.06,4.42-12.24,3.05-3.14,6.94-4.68,11.71-4.68,1.77,0,3.58.18,5.35.62l1.15-11.18c-1.55-.35-3.54-.53-5.97-.53Z"/>
      </g>
    </g>
  </g>
</svg>