<svg xmlns="http://www.w3.org/2000/svg" version="1.1" xlink="http://www.w3.org/1999/xlink" xmlns:svgjs="http://svgjs.com/svgjs" width="100%" height="100%" viewBox="0.8799999952316284 -18.510000228881836 205.67999267578125 23.579999923706055"><g fill="#212121"><path d="M2.9 -9.52C3.89 -8.7 5.3 -8.01 7.12 -7.44C8.12 -7.14 8.88 -6.85 9.4 -6.58C9.92 -6.3 10.28 -6 10.47 -5.68C10.67 -5.36 10.77 -4.96 10.77 -4.48C10.77 -3.78 10.51 -3.23 9.98 -2.82C9.44 -2.41 8.68 -2.2 7.68 -2.2C6.56 -2.2 5.65 -2.45 4.98 -2.95C4.3 -3.46 3.96 -4.23 3.96 -5.27L0.88 -5.27C0.88 -4.09 1.2 -3.09 1.85 -2.26C2.49 -1.43 3.34 -0.8 4.38 -0.39C5.42 0.03 6.52 0.24 7.68 0.24C8.93 0.24 10.01 0.05 10.94 -0.34C11.88 -0.72 12.6 -1.27 13.1 -1.99C13.61 -2.7 13.86 -3.54 13.86 -4.51C13.86 -5.42 13.66 -6.21 13.25 -6.9C12.83 -7.58 12.21 -8.17 11.37 -8.67C10.54 -9.17 9.46 -9.61 8.14 -10C6.88 -10.36 5.96 -10.76 5.37 -11.19C4.79 -11.62 4.49 -12.14 4.49 -12.76C4.49 -13.46 4.75 -14.02 5.27 -14.45C5.79 -14.88 6.55 -15.1 7.55 -15.1C8.61 -15.1 9.41 -14.84 9.96 -14.33C10.5 -13.81 10.77 -13.12 10.77 -12.26L13.84 -12.26C13.84 -13.23 13.59 -14.12 13.08 -14.93C12.57 -15.73 11.84 -16.37 10.9 -16.84C9.95 -17.31 8.85 -17.55 7.59 -17.55C6.38 -17.55 5.31 -17.35 4.38 -16.94C3.44 -16.53 2.71 -15.96 2.19 -15.23C1.67 -14.5 1.41 -13.67 1.41 -12.75C1.41 -11.42 1.91 -10.35 2.9 -9.52Z M16.39 -9.92C15.91 -8.93 15.67 -7.8 15.67 -6.55L15.67 -6.3C15.67 -5.05 15.91 -3.93 16.39 -2.94C16.87 -1.95 17.56 -1.17 18.47 -0.61C19.38 -0.04 20.45 0.24 21.68 0.24C22.9 0.24 23.97 -0.04 24.87 -0.61C25.78 -1.17 26.47 -1.95 26.95 -2.94C27.43 -3.93 27.67 -5.05 27.67 -6.3L27.67 -6.55C27.67 -7.8 27.43 -8.93 26.95 -9.92C26.47 -10.91 25.78 -11.69 24.87 -12.25C23.96 -12.82 22.89 -13.1 21.65 -13.1C20.43 -13.1 19.37 -12.82 18.46 -12.25C17.56 -11.69 16.87 -10.91 16.39 -9.92ZM19.39 -3.31C18.89 -4.08 18.63 -5.08 18.63 -6.3L18.63 -6.55C18.63 -7.33 18.74 -8.03 18.96 -8.66C19.18 -9.29 19.51 -9.79 19.96 -10.17C20.41 -10.54 20.98 -10.72 21.65 -10.72C22.33 -10.72 22.9 -10.54 23.36 -10.17C23.82 -9.79 24.16 -9.29 24.38 -8.66C24.6 -8.03 24.71 -7.33 24.71 -6.55L24.71 -6.3C24.71 -5.52 24.6 -4.81 24.38 -4.19C24.16 -3.56 23.83 -3.06 23.37 -2.69C22.91 -2.32 22.35 -2.14 21.68 -2.14C20.66 -2.14 19.9 -2.53 19.39 -3.31Z M34.56 -15.56C34.92 -15.91 35.42 -16.09 36.07 -16.09C36.5 -16.09 36.87 -16.05 37.18 -15.98L37.25 -18.3C36.68 -18.44 36.13 -18.51 35.61 -18.51C34.67 -18.51 33.87 -18.34 33.18 -18C32.5 -17.66 31.98 -17.16 31.62 -16.49C31.25 -15.83 31.07 -15.02 31.07 -14.08L31.07 -12.86L29.11 -12.86L29.11 -10.68L31.07 -10.68L31.07 0L34.03 0L34.03 -10.68L36.63 -10.68L36.63 -12.86L34.03 -12.86L34.03 -14.08C34.03 -14.72 34.21 -15.22 34.56 -15.56Z M44.73 -2.33C44.37 -2.25 44.04 -2.21 43.72 -2.21C43.28 -2.21 42.94 -2.31 42.72 -2.5C42.5 -2.7 42.39 -3.06 42.39 -3.6L42.39 -10.68L44.65 -10.68L44.65 -12.86L42.39 -12.86L42.39 -16L39.43 -16L39.43 -12.86L37.33 -12.86L37.33 -10.68L39.43 -10.68L39.43 -3.4C39.43 -2.13 39.73 -1.21 40.33 -0.63C40.93 -0.05 41.76 0.24 42.8 0.24C43.52 0.24 44.16 0.14 44.73 -0.05Z M62.99 -12.86L60.11 -12.86L58.11 -4.07L55.48 -12.86L55.16 -12.86L53.27 -12.86L50.66 -4.17L48.63 -12.86L45.75 -12.86L49.24 0L50 0L51.67 0L54.35 -8.73L57.07 0L57.63 0L59.51 0Z M75.57 -0.2C75.25 -0.89 75.08 -1.82 75.08 -3L75.08 -8.67C75.08 -9.63 74.87 -10.44 74.45 -11.11C74.02 -11.77 73.44 -12.27 72.68 -12.6C71.93 -12.94 71.06 -13.1 70.08 -13.1C69.03 -13.1 68.1 -12.92 67.29 -12.55C66.48 -12.18 65.85 -11.69 65.41 -11.09C64.97 -10.48 64.75 -9.83 64.75 -9.14L67.71 -9.14C67.71 -9.47 67.8 -9.76 67.99 -10.02C68.17 -10.28 68.43 -10.49 68.76 -10.64C69.09 -10.79 69.48 -10.87 69.91 -10.87C70.64 -10.87 71.19 -10.68 71.56 -10.29C71.94 -9.91 72.12 -9.37 72.12 -8.69L72.12 -7.86L70.34 -7.86C68.47 -7.86 67.02 -7.49 66.01 -6.77C64.99 -6.04 64.48 -4.99 64.48 -3.61C64.48 -2.89 64.66 -2.23 65.04 -1.64C65.41 -1.05 65.93 -0.59 66.59 -0.26C67.26 0.07 68.01 0.24 68.85 0.24C69.57 0.24 70.21 0.11 70.77 -0.15C71.33 -0.42 71.81 -0.76 72.22 -1.2C72.31 -0.68 72.42 -0.28 72.55 0L75.57 0ZM71.07 -2.57C70.59 -2.27 70.04 -2.13 69.42 -2.13C68.8 -2.13 68.31 -2.29 67.96 -2.62C67.61 -2.95 67.44 -3.38 67.44 -3.9C67.44 -4.57 67.7 -5.1 68.24 -5.47C68.77 -5.84 69.55 -6.03 70.58 -6.03L72.12 -6.03L72.12 -3.63C71.9 -3.21 71.55 -2.86 71.07 -2.57Z M84.41 -13.06C84.2 -13.09 84.01 -13.1 83.85 -13.1C83.21 -13.1 82.65 -12.96 82.17 -12.66C81.69 -12.37 81.28 -11.95 80.96 -11.41L80.87 -12.86L78.06 -12.86L78.06 0L81.02 0L81.02 -8.76C81.47 -9.75 82.36 -10.25 83.68 -10.25C84.07 -10.25 84.46 -10.22 84.86 -10.15L84.88 -12.95C84.78 -12.99 84.62 -13.02 84.41 -13.06Z M97.54 -5.5L97.54 -6.75C97.54 -8.01 97.34 -9.12 96.93 -10.08C96.52 -11.03 95.91 -11.77 95.08 -12.31C94.26 -12.84 93.24 -13.1 92.03 -13.1C90.92 -13.1 89.92 -12.83 89.03 -12.28C88.14 -11.74 87.45 -10.96 86.94 -9.96C86.43 -8.96 86.18 -7.79 86.18 -6.47L86.18 -5.98C86.18 -4.81 86.43 -3.75 86.93 -2.81C87.43 -1.86 88.14 -1.12 89.08 -0.58C90.01 -0.03 91.11 0.24 92.36 0.24C93.54 0.24 94.55 0.01 95.38 -0.45C96.21 -0.91 96.86 -1.49 97.33 -2.18L95.75 -3.71C94.94 -2.66 93.87 -2.14 92.54 -2.14C91.89 -2.14 91.32 -2.28 90.83 -2.57C90.34 -2.85 89.96 -3.25 89.67 -3.76C89.39 -4.26 89.22 -4.85 89.16 -5.5ZM94.62 -7.87L94.62 -7.65L89.22 -7.65C89.36 -8.62 89.66 -9.38 90.14 -9.92C90.61 -10.46 91.24 -10.72 92.02 -10.72C92.89 -10.72 93.53 -10.46 93.94 -9.92C94.35 -9.39 94.58 -8.7 94.62 -7.87Z M117.44 -2.47L109.16 -2.47L109.16 -7.7L116.23 -7.7L116.23 -10.13L109.16 -10.13L109.16 -14.83L117.36 -14.83L117.36 -17.31L109.16 -17.31L106.08 -17.31L106.08 0L108.34 0L117.44 0Z M129.18 -11.97C128.47 -12.72 127.46 -13.1 126.15 -13.1C125.39 -13.1 124.69 -12.95 124.06 -12.66C123.42 -12.36 122.88 -11.93 122.42 -11.38L122.32 -12.86L119.54 -12.86L119.54 0L122.5 0L122.5 -9.16C122.76 -9.64 123.11 -10.02 123.55 -10.28C123.98 -10.55 124.48 -10.69 125.03 -10.69C125.79 -10.69 126.36 -10.51 126.73 -10.15C127.1 -9.79 127.28 -9.18 127.28 -8.32L127.28 0L130.24 0L130.24 -8.3C130.24 -9.99 129.89 -11.21 129.18 -11.97Z M144.03 -12.86L141.35 -12.86L141.23 -11.59C140.41 -12.6 139.27 -13.1 137.79 -13.1C136.74 -13.1 135.83 -12.83 135.05 -12.28C134.27 -11.74 133.67 -10.97 133.25 -9.98C132.83 -8.98 132.62 -7.84 132.62 -6.54L132.62 -6.29C132.62 -5.05 132.83 -3.93 133.26 -2.94C133.68 -1.95 134.28 -1.17 135.06 -0.61C135.83 -0.04 136.74 0.24 137.77 0.24C139.14 0.24 140.24 -0.23 141.07 -1.17L141.07 -0.31C141.07 0.67 140.8 1.42 140.25 1.94C139.71 2.47 138.95 2.73 137.98 2.73C137.37 2.73 136.79 2.61 136.23 2.35C135.68 2.09 135.18 1.7 134.72 1.18L133.34 2.95C133.7 3.43 134.16 3.83 134.72 4.15C135.28 4.47 135.86 4.7 136.46 4.85C137.06 4.99 137.62 5.07 138.15 5.07C139.31 5.07 140.34 4.85 141.23 4.43C142.12 4 142.8 3.38 143.3 2.57C143.79 1.75 144.03 0.77 144.03 -0.37ZM141.07 -3.65C140.54 -2.68 139.69 -2.19 138.52 -2.19C137.54 -2.19 136.81 -2.57 136.32 -3.33C135.83 -4.09 135.58 -5.08 135.58 -6.29L135.58 -6.54C135.58 -7.32 135.69 -8.03 135.9 -8.66C136.11 -9.28 136.44 -9.78 136.89 -10.14C137.33 -10.51 137.88 -10.69 138.54 -10.69C139.7 -10.69 140.54 -10.21 141.07 -9.25Z M157.83 -5.5L157.83 -6.75C157.83 -8.01 157.62 -9.12 157.21 -10.08C156.81 -11.03 156.19 -11.77 155.36 -12.31C154.54 -12.84 153.52 -13.1 152.31 -13.1C151.2 -13.1 150.2 -12.83 149.31 -12.28C148.42 -11.74 147.73 -10.96 147.22 -9.96C146.71 -8.96 146.46 -7.79 146.46 -6.47L146.46 -5.98C146.46 -4.81 146.71 -3.75 147.21 -2.81C147.71 -1.86 148.42 -1.12 149.36 -0.58C150.3 -0.03 151.39 0.24 152.64 0.24C153.82 0.24 154.83 0.01 155.66 -0.45C156.49 -0.91 157.14 -1.49 157.61 -2.18L156.03 -3.71C155.22 -2.66 154.15 -2.14 152.82 -2.14C152.17 -2.14 151.6 -2.28 151.11 -2.57C150.63 -2.85 150.24 -3.25 149.95 -3.76C149.67 -4.26 149.5 -4.85 149.44 -5.5ZM154.9 -7.87L154.9 -7.65L149.5 -7.65C149.64 -8.62 149.94 -9.38 150.42 -9.92C150.89 -10.46 151.52 -10.72 152.3 -10.72C153.17 -10.72 153.81 -10.46 154.22 -9.92C154.64 -9.39 154.86 -8.7 154.9 -7.87Z M169.63 -11.97C168.92 -12.72 167.91 -13.1 166.6 -13.1C165.84 -13.1 165.14 -12.95 164.51 -12.66C163.87 -12.36 163.33 -11.93 162.87 -11.38L162.77 -12.86L159.99 -12.86L159.99 0L162.95 0L162.95 -9.16C163.21 -9.64 163.56 -10.02 164 -10.28C164.43 -10.55 164.93 -10.69 165.48 -10.69C166.24 -10.69 166.81 -10.51 167.18 -10.15C167.55 -9.79 167.73 -9.18 167.73 -8.32L167.73 0L170.69 0L170.69 -8.3C170.69 -9.99 170.34 -11.21 169.63 -11.97Z M184.46 -5.5L184.46 -6.75C184.46 -8.01 184.25 -9.12 183.85 -10.08C183.44 -11.03 182.82 -11.77 182 -12.31C181.17 -12.84 180.15 -13.1 178.94 -13.1C177.83 -13.1 176.83 -12.83 175.95 -12.28C175.06 -11.74 174.36 -10.96 173.85 -9.96C173.35 -8.96 173.09 -7.79 173.09 -6.47L173.09 -5.98C173.09 -4.81 173.34 -3.75 173.84 -2.81C174.34 -1.86 175.06 -1.12 175.99 -0.58C176.93 -0.03 178.02 0.24 179.27 0.24C180.46 0.24 181.46 0.01 182.29 -0.45C183.13 -0.91 183.78 -1.49 184.24 -2.18L182.66 -3.71C181.85 -2.66 180.78 -2.14 179.45 -2.14C178.8 -2.14 178.23 -2.28 177.75 -2.57C177.26 -2.85 176.87 -3.25 176.59 -3.76C176.3 -4.26 176.13 -4.85 176.08 -5.5ZM181.53 -7.87L181.53 -7.65L176.14 -7.65C176.27 -8.62 176.58 -9.38 177.05 -9.92C177.53 -10.46 178.15 -10.72 178.93 -10.72C179.8 -10.72 180.44 -10.46 180.86 -9.92C181.27 -9.39 181.49 -8.7 181.53 -7.87Z M197.54 -5.5L197.54 -6.75C197.54 -8.01 197.33 -9.12 196.93 -10.08C196.52 -11.03 195.9 -11.77 195.08 -12.31C194.25 -12.84 193.23 -13.1 192.02 -13.1C190.91 -13.1 189.91 -12.83 189.02 -12.28C188.14 -11.74 187.44 -10.96 186.93 -9.96C186.42 -8.96 186.17 -7.79 186.17 -6.47L186.17 -5.98C186.17 -4.81 186.42 -3.75 186.92 -2.81C187.42 -1.86 188.14 -1.12 189.07 -0.58C190.01 -0.03 191.1 0.24 192.35 0.24C193.53 0.24 194.54 0.01 195.37 -0.45C196.21 -0.91 196.86 -1.49 197.32 -2.18L195.74 -3.71C194.93 -2.66 193.86 -2.14 192.53 -2.14C191.88 -2.14 191.31 -2.28 190.83 -2.57C190.34 -2.85 189.95 -3.25 189.67 -3.76C189.38 -4.26 189.21 -4.85 189.16 -5.5ZM194.61 -7.87L194.61 -7.65L189.21 -7.65C189.35 -8.62 189.65 -9.38 190.13 -9.92C190.61 -10.46 191.23 -10.72 192.01 -10.72C192.88 -10.72 193.52 -10.46 193.94 -9.92C194.35 -9.39 194.57 -8.7 194.61 -7.87Z M206.09 -13.06C205.88 -13.09 205.69 -13.1 205.53 -13.1C204.89 -13.1 204.33 -12.96 203.85 -12.66C203.37 -12.37 202.96 -11.95 202.64 -11.41L202.56 -12.86L199.74 -12.86L199.74 0L202.7 0L202.7 -8.76C203.15 -9.75 204.04 -10.25 205.36 -10.25C205.75 -10.25 206.14 -10.22 206.54 -10.15L206.56 -12.95C206.46 -12.99 206.3 -13.02 206.09 -13.06Z"></path></g></svg>