<svg xmlns="http://www.w3.org/2000/svg" version="1.1" xlink="http://www.w3.org/1999/xlink" xmlns:svgjs="http://svgjs.com/svgjs" width="100%" height="100%" viewBox="2.430000066757202 -36.619998931884766 277.7200012207031 37.099998474121094"><g fill="#212121"><path d="M22.1 -32.48C19.65 -33.91 16.88 -34.62 13.77 -34.62L11.3 -34.62L2.43 -34.62L2.43 0L6.21 0L13.98 0C17.01 0 19.74 -0.71 22.16 -2.14C24.59 -3.57 26.49 -5.54 27.87 -8.07C29.25 -10.6 29.94 -13.46 29.94 -16.65L29.94 -17.95C29.94 -21.14 29.25 -24 27.86 -26.54C26.47 -29.07 24.55 -31.06 22.1 -32.48ZM20.85 -18L20.85 -16.65C20.85 -13.49 20.26 -11.12 19.07 -9.54C17.88 -7.95 16.19 -7.16 13.98 -7.16L11.3 -7.16L11.3 -27.44L13.77 -27.44C16.08 -27.44 17.84 -26.65 19.05 -25.05C20.25 -23.46 20.85 -21.11 20.85 -18Z M57.19 -10.01L57.19 -13.65C57.19 -16.25 56.71 -18.49 55.75 -20.38C54.79 -22.27 53.42 -23.71 51.64 -24.71C49.85 -25.71 47.76 -26.21 45.35 -26.21C42.57 -26.21 40.24 -25.61 38.36 -24.43C36.47 -23.25 35.07 -21.66 34.15 -19.65C33.23 -17.65 32.77 -15.4 32.77 -12.91L32.77 -12.03C32.77 -9.8 33.3 -7.72 34.37 -5.81C35.44 -3.9 37 -2.38 39.05 -1.24C41.09 -0.1 43.49 0.48 46.25 0.48C47.81 0.48 49.26 0.27 50.6 -0.14C51.95 -0.55 53.12 -1.09 54.11 -1.75C55.1 -2.41 55.88 -3.12 56.45 -3.88L52.67 -8.85C51.96 -7.99 51.09 -7.37 50.07 -6.99C49.05 -6.61 47.96 -6.42 46.82 -6.42C45.47 -6.42 44.35 -6.73 43.43 -7.36C42.52 -7.99 41.9 -8.87 41.57 -10.01ZM45.28 -19.31C47.75 -19.31 48.95 -18.24 48.89 -16.1L48.89 -15.41L41.47 -15.41C41.66 -16.61 42.05 -17.57 42.64 -18.26C43.22 -18.96 44.1 -19.31 45.28 -19.31Z M83.04 -25.73L74.03 -25.73L70.29 -10.27L66.63 -25.73L57.59 -25.73L65.87 0L69.44 0L74.74 0Z M111.88 -5.41C113.1 -7.29 113.75 -9.46 113.83 -11.94L105.01 -11.94C105 -10.16 104.5 -8.87 103.54 -8.06C102.57 -7.25 101.17 -6.85 99.35 -6.85C97.88 -6.85 96.73 -7.14 95.9 -7.72C95.08 -8.3 94.48 -9.28 94.11 -10.68C93.74 -12.07 93.55 -14.04 93.55 -16.57L93.55 -18.07C93.55 -20.51 93.75 -22.44 94.16 -23.86C94.56 -25.28 95.17 -26.3 95.97 -26.91C96.78 -27.52 97.85 -27.82 99.16 -27.82C101.27 -27.82 102.78 -27.39 103.68 -26.53C104.58 -25.66 105.04 -24.29 105.06 -22.42L113.9 -22.42C113.7 -24.91 113 -27.11 111.82 -29.02C110.64 -30.93 108.98 -32.43 106.84 -33.51C104.7 -34.58 102.14 -35.12 99.16 -35.12C96.24 -35.12 93.68 -34.43 91.47 -33.05C89.26 -31.67 87.54 -29.7 86.33 -27.12C85.12 -24.54 84.51 -21.51 84.51 -18.02L84.51 -16.57C84.51 -13.06 85.1 -10.02 86.26 -7.45C87.43 -4.89 89.12 -2.93 91.35 -1.57C93.58 -0.21 96.24 0.48 99.35 0.48C102.17 0.48 104.66 -0.04 106.82 -1.06C108.97 -2.08 110.66 -3.53 111.88 -5.41Z M138.28 -23.71C136.74 -25.37 134.62 -26.21 131.91 -26.21C130.61 -26.21 129.41 -25.93 128.32 -25.37C127.22 -24.82 126.27 -24.03 125.46 -23.02L125.46 -36.53L116.95 -36.53L116.95 0L125.46 0L125.46 -18.22C126.1 -18.98 127.13 -19.36 128.58 -19.36C129.73 -19.36 130.6 -19.1 131.17 -18.6C131.74 -18.09 132.02 -17.15 132.02 -15.77L132.02 0L140.59 0L140.59 -15.72C140.59 -19.38 139.82 -22.04 138.28 -23.71Z M160.92 -25.94C160.33 -26.12 159.58 -26.21 158.66 -26.21C157.47 -26.21 156.39 -25.87 155.44 -25.21C154.48 -24.54 153.68 -23.58 153.05 -22.33L152.76 -25.73L144.82 -25.73L144.82 0L153.33 0L153.33 -15.67C153.68 -16.38 154.24 -16.91 155.01 -17.25C155.78 -17.59 156.8 -17.76 158.06 -17.76C158.51 -17.76 159.19 -17.72 160.11 -17.62L160.77 -17.57Z M170.57 -36.07C169.86 -36.44 169.05 -36.62 168.15 -36.62C167.23 -36.62 166.41 -36.44 165.7 -36.07C164.98 -35.71 164.42 -35.2 164.02 -34.55C163.62 -33.9 163.41 -33.16 163.41 -32.34C163.41 -31.5 163.62 -30.76 164.02 -30.11C164.42 -29.46 164.98 -28.95 165.7 -28.58C166.41 -28.22 167.23 -28.04 168.15 -28.04C169.05 -28.04 169.86 -28.22 170.58 -28.58C171.3 -28.95 171.86 -29.46 172.26 -30.11C172.66 -30.76 172.85 -31.5 172.85 -32.34C172.85 -33.16 172.65 -33.9 172.25 -34.55C171.84 -35.2 171.28 -35.71 170.57 -36.07ZM163.91 0L172.47 0L172.47 -25.73L163.91 -25.73Z M178.89 -12.69C180.54 -11.36 182.72 -10.41 185.43 -9.82C186.75 -9.54 187.75 -9.28 188.44 -9.05C189.13 -8.82 189.62 -8.57 189.92 -8.31C190.21 -8.05 190.36 -7.73 190.36 -7.35C190.36 -6.71 190.1 -6.21 189.58 -5.84C189.07 -5.47 188.33 -5.28 187.36 -5.28C186.17 -5.28 185.24 -5.53 184.58 -6.04C183.91 -6.55 183.56 -7.3 183.53 -8.3L175.61 -8.3C175.61 -6.89 176.07 -5.5 176.98 -4.15C177.89 -2.79 179.22 -1.68 180.95 -0.82C182.69 0.04 184.74 0.48 187.12 0.48C189.41 0.48 191.41 0.13 193.14 -0.57C194.87 -1.27 196.2 -2.22 197.13 -3.44C198.07 -4.65 198.54 -6.02 198.54 -7.54C198.54 -9.36 198.07 -10.84 197.15 -11.98C196.22 -13.13 195.03 -13.99 193.58 -14.57C192.13 -15.14 190.44 -15.58 188.5 -15.88C185.79 -16.31 184.44 -17.15 184.44 -18.41C184.44 -19.06 184.7 -19.56 185.23 -19.93C185.76 -20.29 186.39 -20.47 187.12 -20.47C188.23 -20.47 189 -20.26 189.44 -19.84C189.88 -19.42 190.09 -18.72 190.09 -17.74L198.63 -17.74C198.63 -19.44 198.16 -20.92 197.23 -22.2C196.29 -23.47 194.96 -24.46 193.22 -25.16C191.49 -25.86 189.46 -26.21 187.15 -26.21C184.93 -26.21 183.01 -25.83 181.39 -25.08C179.77 -24.32 178.54 -23.32 177.69 -22.06C176.85 -20.8 176.42 -19.41 176.42 -17.91C176.42 -15.75 177.25 -14.01 178.89 -12.69Z M232.47 -34.62L222.53 -34.62L216.06 -10.23L209.59 -34.62L199.73 -34.62L211.12 0L214.59 0L220.98 0Z M254.87 -2.77C254.7 -3.63 254.61 -4.96 254.61 -6.75L254.61 -16.86C254.61 -18.87 254.14 -20.58 253.21 -21.98C252.27 -23.39 250.98 -24.44 249.34 -25.15C247.7 -25.85 245.83 -26.21 243.74 -26.21C241.44 -26.21 239.43 -25.84 237.7 -25.12C235.97 -24.4 234.64 -23.39 233.71 -22.08C232.77 -20.77 232.3 -19.27 232.3 -17.57L240.82 -17.57C240.82 -18.46 241.02 -19.1 241.42 -19.49C241.83 -19.88 242.45 -20.07 243.29 -20.07C244.26 -20.07 244.96 -19.8 245.39 -19.26C245.83 -18.72 246.05 -17.94 246.05 -16.91L246.05 -15.72L243.84 -15.72C239.71 -15.72 236.66 -14.99 234.67 -13.52C232.68 -12.05 231.69 -9.97 231.69 -7.28C231.69 -5.77 232.08 -4.43 232.87 -3.25C233.67 -2.06 234.73 -1.15 236.06 -0.5C237.39 0.15 238.84 0.48 240.39 0.48C241.88 0.48 243.1 0.24 244.05 -0.23C245 -0.69 245.82 -1.36 246.5 -2.21C246.71 -1.29 246.94 -0.55 247.21 0L255.7 0L255.7 -0.4C255.32 -1.12 255.04 -1.91 254.87 -2.77ZM244.7 -6.19C244.09 -5.89 243.36 -5.73 242.51 -5.73C241.86 -5.73 241.31 -5.91 240.86 -6.25C240.42 -6.6 240.2 -7.06 240.2 -7.63C240.2 -8.58 240.46 -9.4 241 -10.09C241.53 -10.78 242.41 -11.13 243.65 -11.13L246.05 -11.13L246.05 -7.37C245.76 -6.9 245.31 -6.5 244.7 -6.19Z M280.15 -6.9L269.21 -6.9L279.96 -21.09L279.96 -25.73L277.25 -25.73L258.63 -25.73L258.63 -18.83L268.81 -18.83L258.08 -4.78L258.08 0L260.01 0L280.15 0Z"></path></g></svg>